<?xml version="1.0" standalone="no"?>
<!DOCTYPE svg PUBLIC "-//W3C//DTD SVG 20010904//EN"
 "http://www.w3.org/TR/2001/REC-SVG-20010904/DTD/svg10.dtd">
<svg version="1.0" xmlns="http://www.w3.org/2000/svg"
 width="700.000000pt" height="700.000000pt" viewBox="0 0 700.000000 700.000000"
 preserveAspectRatio="xMidYMid meet">
<metadata>
Created by potrace 1.14, written by Peter Selinger 2001-2017
</metadata>
<g transform="translate(0.000000,700.000000) scale(0.100000,-0.100000)"
fill="#000000" stroke="none">
<path d="M6002 6984 c3 -18 2 -18 -88 -28 -32 -4 -76 -9 -96 -11 -41 -5 -80
-10 -168 -20 -30 -4 -68 -9 -85 -11 -16 -3 -50 -7 -75 -10 -25 -2 -67 -7 -95
-10 -73 -9 -94 -12 -160 -19 -33 -3 -71 -8 -85 -10 -14 -3 -47 -7 -75 -10 -27
-3 -104 -12 -170 -20 -66 -8 -145 -17 -175 -20 -30 -3 -71 -8 -90 -11 -37 -6
-63 -10 -145 -18 -27 -3 -66 -7 -85 -10 -19 -3 -57 -7 -85 -11 -27 -3 -66 -7
-85 -10 -75 -10 -117 -15 -175 -20 -33 -4 -73 -8 -90 -11 -16 -3 -46 -7 -65
-9 -19 -2 -55 -6 -80 -9 -25 -3 -72 -8 -105 -11 -33 -3 -85 -10 -115 -15 -30
-5 -80 -12 -110 -14 -53 -5 -107 -11 -180 -21 -19 -2 -62 -7 -95 -10 -33 -4
-71 -8 -85 -10 -14 -2 -50 -6 -80 -10 -30 -4 -66 -8 -80 -10 -14 -2 -50 -6
-80 -10 -30 -3 -66 -8 -80 -10 -14 -2 -50 -7 -80 -10 -30 -3 -72 -8 -92 -10
-21 -3 -55 -7 -75 -10 -72 -8 -238 -27 -271 -30 -18 -2 -45 -6 -60 -9 -15 -3
-54 -8 -87 -11 -33 -3 -94 -9 -135 -15 -86 -11 -164 -21 -200 -25 -14 -1 -47
-5 -75 -9 -27 -3 -72 -8 -100 -11 -27 -3 -66 -7 -85 -10 -19 -2 -57 -7 -85
-10 -27 -3 -61 -7 -75 -10 -14 -2 -52 -7 -85 -10 -33 -4 -78 -8 -100 -11 -37
-4 -86 -10 -145 -19 -14 -2 -54 -7 -90 -10 -36 -4 -72 -8 -80 -10 -8 -1 -44
-6 -80 -10 -36 -3 -76 -8 -90 -10 -14 -2 -54 -7 -90 -10 -36 -3 -95 -10 -131
-15 -37 -5 -98 -13 -135 -16 -97 -9 -97 -9 -102 -22 -2 -7 -15 -12 -28 -12
-16 0 -23 -4 -18 -11 3 -6 15 -9 25 -6 19 5 19 -62 19 -3119 l0 -3124 2918 2
2917 3 1 3120 c0 1716 -3 3122 -6 3125 -8 5 -18 84 -26 195 -2 39 -6 88 -9
110 -2 22 -7 80 -11 129 -8 115 -9 121 -23 119 -7 -2 -11 22 -11 71 0 68 2 74
23 81 l22 8 -22 4 c-13 2 -23 11 -23 19 0 8 -5 14 -10 14 -6 0 -10 -7 -8 -16z
m3 -44 c3 -5 1 -10 -4 -10 -6 0 -11 5 -11 10 0 6 2 10 4 10 3 0 8 -4 11 -10z
m-2 -130 c-3 -11 -14 -20 -24 -20 -18 0 -18 1 -1 19 23 25 31 26 25 1z m-88
-20 c-3 -5 -25 -9 -48 -8 l-42 1 45 7 c25 4 46 8 48 8 2 1 0 -2 -3 -8z m-142
-17 c-13 -2 -33 -2 -45 0 -13 2 -3 4 22 4 25 0 35 -2 23 -4z m258 -27 c0 -17
2 -40 4 -51 2 -11 7 -54 10 -96 12 -145 13 -164 20 -256 l8 -93 -2853 0
c-1569 0 -2851 2 -2849 4 14 14 258 18 1064 16 501 -1 1745 -3 2765 -4 l1855
-1 -1 35 c0 19 -4 64 -7 100 -4 36 -10 112 -13 170 -4 58 -9 125 -13 150 l-6
45 -39 -3 c-22 -2 -49 -6 -60 -8 -12 -2 -16 0 -10 6 8 7 27 10 112 16 7 0 12
-12 13 -30z m-456 14 c3 -5 1 -10 -4 -10 -6 0 -11 5 -11 10 0 6 2 10 4 10 3 0
8 -4 11 -10z m93 3 c-10 -2 -28 -2 -40 0 -13 2 -5 4 17 4 22 1 32 -1 23 -4z
m-125 -10 c-7 -2 -19 -2 -25 0 -7 3 -2 5 12 5 14 0 19 -2 13 -5z m347 4 c-5
-4 -61 -10 -220 -23 -36 -3 -72 -8 -80 -10 -10 -4 -12 -2 -5 4 6 6 53 13 105
17 52 4 96 8 97 9 2 1 26 3 55 5 29 1 50 0 48 -2z m-755 -37 c-3 -5 -12 -10
-18 -10 -7 0 -6 4 3 10 19 12 23 12 15 0z m435 7 c-3 -3 -45 -8 -95 -11 -49
-4 -97 -9 -107 -12 -9 -3 -19 -1 -21 3 -3 5 20 10 51 11 31 2 58 5 59 6 2 1
29 4 60 5 32 1 55 0 53 -2z m-255 -23 c-54 -11 -174 -19 -168 -13 5 4 31 10
58 12 66 5 135 5 110 1z m-620 -24 c-3 -5 -12 -10 -18 -10 -7 0 -6 4 3 10 19
12 23 12 15 0z m395 6 c0 -2 -15 -6 -34 -8 -19 -2 -32 0 -30 4 5 8 64 12 64 4z
m37 -2 c-3 -3 -12 -4 -19 -1 -8 3 -5 6 6 6 11 1 17 -2 13 -5z m-212 -14 c-3
-5 -12 -10 -18 -10 -7 0 -6 4 3 10 19 12 23 12 15 0z m63 3 c-10 -2 -26 -2
-35 0 -10 3 -2 5 17 5 19 0 27 -2 18 -5z m-110 -10 c-10 -2 -26 -2 -35 0 -10
3 -2 5 17 5 19 0 27 -2 18 -5z m-88 -9 c-37 -8 -88 -9 -84 -2 3 4 26 7 52 7
26 -1 40 -3 32 -5z m-195 -13 c-9 -8 -36 -10 -30 -2 2 4 11 8 20 8 8 0 13 -3
10 -6z m63 2 c-10 -2 -26 -2 -35 0 -10 3 -2 5 17 5 19 0 27 -2 18 -5z m-115
-10 c-7 -2 -21 -2 -30 0 -10 3 -4 5 12 5 17 0 24 -2 18 -5z m-113 -7 c0 -2
-11 -6 -25 -8 -13 -3 -22 -1 -19 3 5 9 44 13 44 5z m43 -3 c-7 -2 -19 -2 -25
0 -7 3 -2 5 12 5 14 0 19 -2 13 -5z m-140 -10 c-7 -2 -19 -2 -25 0 -7 3 -2 5
12 5 14 0 19 -2 13 -5z m-136 -9 c-3 -3 -12 -4 -19 -1 -8 3 -5 6 6 6 11 1 17
-2 13 -5z m-180 -20 c-3 -3 -12 -4 -19 -1 -8 3 -5 6 6 6 11 1 17 -2 13 -5z
m-2717 -204 c0 -5 -4 -10 -10 -10 -5 0 -10 5 -10 10 0 6 5 10 10 10 6 0 10 -4
10 -10z m44 2 c3 -5 -1 -9 -9 -9 -8 0 -12 4 -9 9 3 4 7 8 9 8 2 0 6 -4 9 -8z
m-108 -15 c2 -2 -19 -5 -47 -6 -29 -1 -57 -4 -63 -8 -7 -4 -8 -2 -1 5 15 16
98 23 111 9z m-169 -13 c-3 -3 -12 -4 -19 -1 -8 3 -5 6 6 6 11 1 17 -2 13 -5z
m-60 -10 c-3 -3 -12 -4 -19 -1 -8 3 -5 6 6 6 11 1 17 -2 13 -5z"/>
</g>
</svg>
